<svg xmlns="http://www.w3.org/2000/svg" version="1.1" xmlns:xlink="http://www.w3.org/1999/xlink" xmlns:svgjs="http://svgjs.dev/svgjs" width="1438" height="561" preserveAspectRatio="none" viewBox="0 0 1438 561"><g mask="url(&quot;#SvgjsMask1073&quot;)" fill="none"><rect width="1438" height="561" x="0" y="0" fill="rgba(178, 225, 255, 1)"></rect><path d="M0,487.702C90.516,512.905,187.79,465.987,266.218,414.243C344.108,362.854,406.391,287.705,436.834,199.495C465.856,115.402,439.73,26.582,430.545,-61.903C420.945,-154.39,447.071,-264.608,381.787,-330.82C316.283,-397.256,204.321,-366.038,112.801,-384.166C31.317,-400.306,-46.717,-453.92,-126.713,-431.543C-206.936,-409.103,-262.255,-336.422,-307.628,-266.561C-348.882,-203.041,-349.621,-125.806,-372.228,-53.518C-400.149,35.762,-500.983,126.218,-456.139,208.312C-410.086,292.62,-267.323,238.316,-185.403,288.493C-106.449,336.853,-89.195,462.866,0,487.702" fill="#1ba6ff"></path><path d="M1438 1080.62C1557.858 1083.9769999999999 1678.634 1153.717 1789.383 1107.762 1904.9569999999999 1059.805 2011.483 956.3109999999999 2034.1480000000001 833.252 2056.563 711.5509999999999 1927.263 615.453 1902.382 494.23199999999997 1879.758 384.005 1960.644 256.127 1896.69 163.543 1832.9769999999999 71.30700000000002 1700.103 64.86200000000002 1590.274 42.400999999999954 1488.355 21.557999999999993 1379.571-3.9610000000000127 1284.537 38.351 1192.999 79.10700000000003 1161.693 189.029 1094.3319999999999 263.21 1024.818 339.762 903.429 379.869 882.47 481.127 861.5 582.436 955.629 667.975 990.38 765.421 1029.326 874.63 1004.2429999999999 1021.671 1099.0439999999999 1088.426 1193.358 1154.839 1322.694 1077.3899999999999 1438 1080.62" fill="#ffffff"></path></g><defs><mask id="SvgjsMask1073"><rect width="1438" height="561" fill="#ffffff"></rect></mask></defs></svg>